<svg xmlns="http://www.w3.org/2000/svg" viewBox="0 0 100 200" role="img">
  <path fill="rgba(255,255,255,.033)" d="M100,100 L100,150 L90,150 L90,130.004875 C80.877712,142.146569 66.35599,150 50,150 C33.64401,150 19.122288,142.146569 10,130.004875 L10,200 L0,200 L0,0 L10,0 L10,69.9951255 C18.181114,59.1061264 30.704985,51.6661717 45,50.2468762 L45,0 L55,0 L55,50.2468762 C80.266613,52.7554984 100,74.073259 100,100 Z M45,139.690531 L45,60.3094688 C25.268442,62.7699592 10,79.601912 10,100 C10,120.398088 25.268442,137.230041 45,139.690531 Z M55,60.3094688 L55,139.690531 C74.731558,137.230041 90,120.398088 90,100 C90,79.601912 74.731558,62.7699592 55,60.3094688 Z" />
</svg>