<svg xmlns="http://www.w3.org/2000/svg" width="880" height="130" viewBox="0 0 880 130">
  <defs>
    <linearGradient id="mast-mountains" x1="50%" x2="50%" y1="0%" y2="100%">
      <stop offset="0%" stop-color="#CE64A2"/>
      <stop offset="100%" stop-color="#C95770"/>
    </linearGradient>
  </defs>
  <path fill="url(#mast-mountains)" d="M256.7764,0 L336.2464,14.790323 L490.948,15.142473 C501.1908,13.38172 511.4336,12.325269 521.3232,10.916667 C523.0892,10.564516 525.2084,9.508065 527.3276,9.155914 C537.2172,6.69086 547.8132,5.282258 558.056,4.930108 C563.7072,4.577957 573.95,2.817204 575.0096,2.817204 L591.61,2.817204 C592.3164,3.169355 593.0228,3.521505 593.376,3.521505 L617.7468,3.169355 C618.1,3.169355 618.1,2.465054 619.1596,2.465054 L635.0536,2.465054 L649.888,4.930108 L670.7268,5.282258 C672.4928,5.634409 674.612,5.986559 676.7312,6.33871 L772.4484,6.69086 L883,27.115591 L883,131 L0,131 L0,27.115591 C3.1788,25.354839 6.7108,25.354839 9.8896,25.002688 C13.0684,24.650538 16.2472,23.946237 19.426,23.594086 C20.4856,23.594086 37.7924,19.36828 41.6776,19.36828 L50.5076,19.36828 C53.6864,18.663978 58.9844,17.959677 60.044,17.959677 L66.4016,17.959677 C67.8144,17.607527 69.2272,16.903226 70.64,16.903226 C83.7084,15.142473 96.0704,13.733871 109.8452,11.268817 C127.8584,8.099462 146.9312,6.33871 165.6508,4.225806 C168.4764,3.873656 171.302,2.817204 174.4808,2.112903 C179.0724,1.056452 184.3704,1.056452 189.3152,0 L256.7764,0 Z"/>
</svg>
